# xmcd CD database file
#
# Track frame offsets:
#	150
#	10355
#	21955
#	34222
#	46442
#	59880
#	72375
#	82542
#	92882
#	104350
#	116785
#	129535
#	139802
#	152225
#	163465
#	175745
#	188745
#	200132
#	211197
#	226630
#	240747
#
# Disc length: 3390 seconds
#
# Revision: 1
# Processed by: cddbd v1.5.2PL0 Copyright (c) Steve Scherf et al.
# Submitted via: CDex 1.51
#
DISCID=2f0d3c15
DTITLE=Various Artist - VEE JAY,THE CHICAGO BLACK MUSIC(Disc3)
DYEAR=1997
DGENRE=Blues
TTITLE0=Crying For My Baby - Harold Burrage
TTITLE1=Eventime - Tommy Dean Orchestra featuring Joe Buckner
TTITLE2=Recession - Tommy Dean Orchestra featuring Joe Buckner
TTITLE3=One More Mile - Tommy Dean Orchestra featuring Joe Buckner
TTITLE4=Cinemascope Baby - Pro McClam
TTITLE5=Hootie Blues - Jay McShann Orchestra with Pricilla Bowman
TTITLE6=A Rockin' Good Way - Pricila Bowman with The Spaniels
TTITLE7=K.C.Loveing - Jimmy Withrspoon
TTITLE8=Give It Up - Noble "THIN MAN" Watts and Paul Williams
TTITLE9=South Side Drive - Noble "THIN MAN" Watts and Paul Williams
TTITLE10=Oop De Oop - Earl Phillps 
TTITLE11=Tell Me Baby - The Five Echoes
TTITLE12=Evil Woman - The Five Echoes
TTITLE13=Rock 'N' Roll Boogie - The Crume Brothers
TTITLE14=It's You I Love You - The Crume Brothers
TTITLE15=Big Jay's Hop - Big Jay mcNeely
TTITLE16=The Skillet's Gonna Fry - Edith Mackey with Arnett Cobb Orchstra 
TTITLE17=Some Day - Danny Cobb with Arnett Cobb Orchestra
TTITLE18=Business Woman - Camille Howard
TTITLE19=Soup Line - Dizzy Dixon
TTITLE20=I What Have You Done To Me - Grant Jones
EXTD=YEAR: 1997
EXTT0=
EXTT1=
EXTT2=
EXTT3=
EXTT4=
EXTT5=
EXTT6=
EXTT7=
EXTT8=
EXTT9=
EXTT10=
EXTT11=
EXTT12=
EXTT13=
EXTT14=
EXTT15=
EXTT16=
EXTT17=
EXTT18=
EXTT19=
EXTT20=
PLAYORDER=
